# AST/ASF file generated using VICON BodyLanguage
# -----------------------------------------------
:version 1.10
:name VICON
:units
  mass 1.0
  length 0.45
  angle deg
:documentation
   .ast/.asf automatically generated from VICON data using
   VICON BodyBuilder and BodyLanguage model FoxedUp or BRILLIANT.MOD
:root
   order TX TY TZ RX RY RZ
   axis XYZ
   position 0 0 0  
   orientation 0 0 0 
:bonedata
  begin
     id 1 
     name lhipjoint
     direction 0.558404 -0.748506 0.357664 
     length 2.4234 
     axis 0 0 0  XYZ
  end
  begin
     id 2 
     name lfemur
     direction 0.34202 -0.939693 0  
     length 7.14567  
     axis 0 0 20  XYZ
    dof rx ry rz
    limits (-160.0 20.0)
           (-70.0 70.0)
           (-60.0 70.0)
  end
  begin
     id 3 
     name ltibia
     direction 0.34202 -0.939693 0   
     length 8.13956   
     axis 0 0 20   XYZ
    dof rx
    limits (-10.0 170.0)
  end
  begin
     id 4 
     name lfoot
     direction 0.0791314 -0.217412 0.972867   
     length 2.00134   
     axis -90 7.62852e-016 20   XYZ
    dof rx rz
    limits (-45.0 90.0)
           (-70.0 20.0)
  end
  begin
     id 5 
     name ltoes
     direction 1.53547e-011 -4.21922e-011 1   
     length 1.00735   
     axis -90 7.62852e-016 20   XYZ
    dof rx
    limits (-90.0 20.0)
  end
  begin
     id 6 
     name rhipjoint
     direction -0.496392 -0.78327 0.374276   
     length 2.31584  
     axis 0 0 0  XYZ 
  end
  begin
     id 7 
     name rfemur
     direction -0.34202 -0.939693 0   
     length 7.47417   
     axis 0 0 -20   XYZ
    dof rx ry rz
    limits (-160.0 20.0)
           (-70.0 70.0)
           (-70.0 60.0)
  end
  begin
     id 8 
     name rtibia
     direction -0.34202 -0.939693 0   
     length 7.69071   
     axis 0 0 -20   XYZ
    dof rx
    limits (-10.0 170.0)
 end
 begin
     id 9 
     name rfoot
     direction -0.103069 -0.28318 0.953512   
     length 2.16135  
     axis -90 -7.62852e-016 -20   XYZ
    dof rx rz
    limits (-45.0 90.0)
           (-20.0 70.0)
  end
  begin
     id 10 
     name rtoes
     direction -1.53581e-011 -4.21904e-011 1   
     length 1.07867   
     axis -90 -7.62852e-016 -20   XYZ
    dof rx
    limits (-90.0 20.0)
  end
  begin
     id 11 
     name lowerback
     direction -0.0258961 0.994776 -0.0987407   
     length 2.19412   
     axis 0 0 0   XYZ
    dof rx ry rz
    limits (-20.0 45.0)
           (-30.0 30.0)
           (-30.0 30.0)
  end
  begin
     id 12 
     name upperback
     direction 0.0402454 0.999185 0.00320666   
     length 2.18445   
     axis 0 0 0   XYZ
    dof rx ry rz
    limits (-20.0 45.0)
           (-30.0 30.0)
           (-30.0 30.0)
  end
  begin
     id 13 
     name thorax
     direction 0.0519376 0.997415 0.0496558   
     length 2.21487   
     axis 0 0 0   XYZ
    dof rx ry rz
    limits (-20.0 45.0)
           (-30.0 30.0)
           (-30.0 30.0)
  end
  begin
     id 14 
     name lowerneck
     direction -0.0921276 0.983211 0.157506   
     length 1.61201   
     axis 0 0 0   XYZ
    dof rx ry rz
    limits (-20.0 45.0)
           (-30.0 30.0)
           (-30.0 30.0)
  end
  begin
     id 15 
     name upperneck
     direction 0.0820814 0.98162 -0.172292   
     length 1.65275   
     axis 0 0 0   XYZ
    dof rx ry rz
    limits (-20.0 45.0)
           (-30.0 30.0)
           (-30.0 30.0)
  end
  begin
     id 16
     name head
     direction 0.0336554 0.996413 -0.0776455  
     length 1.66415  
     axis 0 0 0   XYZ
    dof rx ry rz
    limits (-20.0 45.0)
           (-30.0 30.0)
           (-30.0 30.0)
  end
  begin
     id 17 
     name lclavicle
     direction 0.94696 0.284418 -0.149576  
     length 3.41447  
     axis 0 0 0   XYZ
    dof ry rz
    limits (-20.0 10.0)
           (0.0 20.0)
  end
  begin
     id 18 
     name lhumerus
     direction 1 -0.000130264 -9.81312e-005   
     length 5.19964   
     axis 180 -30 -90   XYZ
    dof rx ry rz
    limits (-60.0 90.0)
           (-90.0 90.0)
           (-90.0 90.0)
  end
  begin
     id 19
     name lradius
     direction 1 -4.48961e-011 1.43854e-026   
     length 3.32189   
     axis 180 -30 -90   XYZ
    dof rx
    limits (-10.0 170.0)
  end
  begin
     id 20
     name lwrist
     direction 1 -4.48958e-011 3.1502e-026   
     length 1.66095   
     axis -1.97692e-014 90 90   XYZ
    dof ry
    limits (-180.0 0.0)
 end
  begin
     id 21 
     name lhand
     direction 1 -4.48927e-011 6.3004e-026   
     length 0.645616   
     axis -4.02019e-014 90 90   XYZ
    dof rx rz
    limits (-90.0 90.0)
           (-45.0 45.0)
  end
  begin
     id 22 
     name lfingers
     direction 1 -4.4904e-011 1.26008e-025   
     length 0.520512   
     axis -8.04039e-014 90 90   XYZ
    dof rx
    limits (0.0 90.0)
  end
  begin
     id 23
     name lthumb
     direction 0.707107 -6.34947e-011 0.707107   
     length 0.747354   
     axis -90 45 2.85299e-015   XYZ
    dof rx rz
    limits (-45.0 45.0)
           (-45.0 45.0)
  end
  begin
     id 24 
     name rclavicle
     direction -0.909391 0.383475 -0.161107   
     length 3.25176  
     axis 0 0 0   XYZ 
    dof ry rz
    limits (-10.0 20.0)
           (-20.0 0.0)
  end
  begin
     id 25 
     name rhumerus
     direction -1 -4.48965e-011 -1.81384e-027  
     length 5.6595   
     axis 180 30 90   XYZ
    dof rx ry rz
    limits (-90.0 60.0)
           (-90.0 90.0)
           (-90.0 90.0)
  end
  begin
     id 26 
     name rradius
     direction -1 -4.48996e-011 -8.09397e-027   
     length 3.37604   
     axis 180 30 90   XYZ
    dof rx
    limits (-10.0 170.0)
  end
  begin
     id 27 
     name rwrist
     direction -1 -4.48927e-011 -1.56669e-026   
     length 1.68802   
     axis 1.21142e-014 -90 -90   XYZ
    dof ry
    limits (-180.0 0.0)
  end
  begin
     id 28
     name rhand
     direction -1 -4.48912e-011 -3.13339e-026   
     length 0.824702   
     axis 1.99937e-014 -90 -90   XYZ
    dof rx rz
    limits (-90.0 90.0)
           (-45.0 45.0)
  end
  begin
     id 29
     name rfingers
     direction -1 -4.49011e-011 -6.26677e-026   
     length 0.664896   
     axis 3.99874e-014 -90 -90   XYZ
    dof rx
    limits (0.0 90.0)
  end
  begin
     id 30
     name rthumb
     direction -0.707107 -6.34931e-011 0.707107   
     length 0.954662   
     axis -90 -45 -2.85299e-015   XYZ
    dof rx rz
    limits (-45.0 45.0)
           (-45.0 45.0)
  end
:hierarchy
  begin
    root lhipjoint rhipjoint lowerback
    lhipjoint lfemur
    lfemur ltibia
    ltibia lfoot
    lfoot ltoes
    rhipjoint rfemur
    rfemur rtibia
    rtibia rfoot
    rfoot rtoes
    lowerback upperback
    upperback thorax
    thorax lowerneck lclavicle rclavicle
    lowerneck upperneck
    upperneck head
    lclavicle lhumerus
    lhumerus lradius
    lradius lwrist
    lwrist lhand lthumb
    lhand lfingers
    rclavicle rhumerus
    rhumerus rradius
    rradius rwrist
    rwrist rhand rthumb
    rhand rfingers
  end

#!OML:ASF F:\VICON\USERDATA\INSTALL\rory3\rory3.ASF
:FULLY-SPECIFIED
:DEGREES
222
root 10.8965 17.6942 -17.5966 13.7454 -53.3097 -8.33547
lowerback 7.0408 -0.634447 -4.68394
upperback 1.79678 -1.1363 3.03332
thorax -1.93272 -0.567994 5.89694
lowerneck -12.828 1.22627 -9.23727
upperneck 28.8467 0.687518 10.0804
head 11.3392 0.379123 5.4246
rclavicle 1.08785e-013 2.18663e-014
rhumerus -35.3746 -18.0882 -72.0687
rradius 38.9429
rwrist -16.2819
rhand -11.4617 17.6554
rfingers 7.12502
rthumb 14.5757 -11.8124
lclavicle 1.08785e-013 2.18663e-014
lhumerus -19.7272 24.0339 75.6965
lradius 23.0249
lwrist -12.1775
lhand -4.40073 33.3743
lfingers 7.12502
lthumb 21.3691 62.216
rfemur -35.0254 4.99288 17.4942
rtibia 57.0478
rfoot -10.0916 0.567507
rtoes 14.4601
lfemur -16.9053 6.83026 -22.8782
ltibia 37.408
lfoot -27.5593 18.0761
ltoes 13.936
223
root 10.8803 17.6921 -17.5706 13.2661 -53.4316 -7.57332
lowerback 6.95266 -0.621238 -5.20675
upperback 1.84157 -1.15391 2.88289
thorax -1.82636 -0.579351 6.03622
lowerneck -12.594 1.18508 -9.59139
upperneck 28.6457 0.614177 10.4043
head 11.2158 0.345699 5.58515
rclavicle -4.07012e-014 1.07344e-014
rhumerus -35.3092 -19.6905 -71.3956
rradius 38.1692
rwrist -14.7675
rhand -11.1229 18.1915
rfingers 7.12502
rthumb 14.9021 -11.2525
lclavicle -4.07012e-014 1.07344e-014
lhumerus -19.4374 23.6688 75.9224
lradius 23.003
lwrist -12.6421
lhand -4.95791 32.6177
lfingers 7.12502
lthumb 20.8339 61.5191
rfemur -35.3388 4.76747 16.9062
rtibia 57.4299
rfoot -10.3005 0.712501
rtoes 14.4491
lfemur -16.8441 6.43157 -23.5017
ltibia 37.2954
lfoot -27.708 18.4916
ltoes 14.0416
224
root 10.8574 17.6863 -17.5438 12.9895 -53.5898 -7.26288
lowerback 6.94789 -0.537918 -5.35814
upperback 1.91057 -1.05654 2.68659
thorax -1.7668 -0.533686 5.90659
lowerneck -12.192 1.20605 -9.72538
upperneck 28.3727 0.550482 10.7659
head 11.0308 0.341758 5.71312
rclavicle 4.67144e-015 1.21259e-014
rhumerus -35.5981 -19.0398 -71.6252
rradius 38.4901
rwrist -15.6571
rhand -11.6312 17.7459
rfingers 7.12502
rthumb 14.4124 -11.7337
lclavicle 4.67144e-015 1.21259e-014
lhumerus -19.1373 23.8075 75.8615
lradius 22.9717
lwrist -12.9834
lhand -5.47594 31.3876
lfingers 7.12502
lthumb 20.3361 60.3428
rfemur -35.475 4.75615 16.6721
rtibia 57.7646
rfoot -10.5082 0.635916
rtoes 13.465
lfemur -16.6343 6.13991 -23.8182
ltibia 37.2475
lfoot -27.9878 18.8398
ltoes 14.2011
225
root 10.8339 17.6755 -17.5101 12.9262 -53.8333 -7.23514
lowerback 6.93807 -0.515038 -5.38334
upperback 1.9938 -1.02968 2.56671
thorax -1.68059 -0.525361 5.79086
lowerneck -12.0152 1.30076 -9.67298
upperneck 28.2382 0.647226 10.8266
head 10.9304 0.397008 5.72493
rclavicle -3.63776e-014 -1.47101e-014
rhumerus -35.7231 -19.2907 -71.5735
rradius 38.3577
rwrist -15.1898
rhand -11.8939 17.6433
rfingers 7.12502
rthumb 14.1593 -11.8542
lclavicle -3.63776e-014 -1.47101e-014
lhumerus -18.8774 24.1576 75.7463
lradius 23.0327
lwrist -12.9629
lhand -5.46419 30.9895
lfingers 7.12502
lthumb 20.3474 59.9435
rfemur -35.589 4.88477 16.5965
rtibia 58.0941
rfoot -10.8378 0.459404
rtoes 13.6637
lfemur -16.4209 6.16245 -23.9548
ltibia 37.2147
lfoot -28.153 19.0667
ltoes 14.112
226
root 10.817 17.6672 -17.4925 13.2147 -53.7445 -7.3739
lowerback 6.98973 -0.616534 -5.54182
upperback 1.97401 -1.17715 2.6377
thorax -1.70395 -0.597834 5.96965
lowerneck -12.245 1.3564 -9.34097
upperneck 28.3884 0.763125 10.4547
head 11.0278 0.443156 5.55243
rclavicle 6.26172e-014 -2.06736e-014
rhumerus -35.7206 -19.1492 -71.5752
rradius 38.348
rwrist -15.1715
rhand -11.9199 17.6404
rfingers 7.12502
rthumb 14.1342 -11.8588
lclavicle 6.26172e-014 -2.06736e-014
lhumerus -18.7135 24.4383 75.7669
lradius 23.1016
lwrist -12.7504
lhand -5.14685 31.0596
lfingers 7.12502
lthumb 20.6523 59.9809
rfemur -35.912 4.77997 16.761
rtibia 58.3846
rfoot -11.1627 -0.00637168
rtoes 12.9563
lfemur -16.5727 6.5185 -23.8353
ltibia 37.276
lfoot -28.1487 18.8686
ltoes 13.2106
227
root 10.8 17.6603 -17.4793 13.2125 -53.4356 -7.171
lowerback 7.08263 -0.667089 -5.83558
upperback 1.97436 -1.26925 2.66157
thorax -1.73412 -0.642539 6.17294
lowerneck -12.875 1.29873 -8.61713
upperneck 28.8021 0.718469 9.80056
head 11.3365 0.427504 5.21
rclavicle 2.54444e-014 2.90226e-014
rhumerus -35.8279 -18.6436 -71.7064
rradius 38.6615
rwrist -15.9959
rhand -11.9362 17.4497
rfingers 7.12502
rthumb 14.1185 -12.0507
lclavicle 2.54444e-014 2.90226e-014
lhumerus -18.3467 24.3647 75.9835
lradius 23.0515
lwrist -12.5914
lhand -5.45543 30.7526
lfingers 7.12502
lthumb 20.3558 59.7058
rfemur -36.1982 4.30622 16.8424
rtibia 58.6441
rfoot -11.3504 -1.11786
rtoes 9.01338
lfemur -16.7271 6.5698 -23.8978
ltibia 37.3803
lfoot -28.209 18.7527
ltoes 12.1883
228
root 10.7756 17.6509 -17.446 13.3126 -53.4445 -7.25062
lowerback 6.9699 -0.622478 -5.73517
upperback 2.08711 -1.19785 2.61068
thorax -1.56838 -0.616379 6.05124
lowerneck -13.0261 1.26935 -8.5226
upperneck 28.8221 0.679884 9.75366
head 11.3813 0.418016 5.17599
rclavicle -1.54058e-014 -1.90833e-014
rhumerus -35.9047 -19.2188 -71.4776
rradius 38.4714
rwrist -15.4824
rhand -11.7349 17.5039
rfingers 7.12502
rthumb 14.3124 -11.9828
lclavicle -1.54058e-014 -1.90833e-014
lhumerus -17.8419 23.9663 76.2114
lradius 22.9136
lwrist -12.558
lhand -6.03417 30.2551
lfingers 7.12502
lthumb 19.7995 59.2666
rfemur -36.3262 4.05833 16.9945
rtibia 58.8429
rfoot -11.5103 -2.24805
rtoes 6.54706
lfemur -16.6779 6.53108 -23.911
ltibia 37.4874
lfoot -28.4617 18.8817
ltoes 11.2773
229
root 10.754 17.6467 -17.4137 13.8834 -53.3743 -7.84683
lowerback 6.91759 -0.677275 -5.29534
upperback 2.13208 -1.23859 2.61102
thorax -1.49743 -0.640682 5.8007
lowerneck -12.6164 1.30631 -9.02597
upperneck 28.4203 0.668079 10.3851
head 11.1312 0.433483 5.47126
rclavicle -8.71671e-014 -1.23246e-014
rhumerus -35.876 -20.6846 -71.0883
rradius 37.8319
rwrist -14.3557
rhand -11.6999 17.7712
rfingers 7.12502
rthumb 14.3462 -11.7131
lclavicle -8.71671e-014 -1.23246e-014
lhumerus -17.4277 23.6537 76.2665
lradius 22.9188
lwrist -12.0948
lhand -5.54638 30.4469
lfingers 7.12502
lthumb 20.2684 59.4094
rfemur -36.4805 3.92517 17.4313
rtibia 58.9888
rfoot -11.8994 -2.57725
rtoes 8.04243
lfemur -16.717 6.66977 -23.5389
ltibia 37.5797
lfoot -28.6503 18.7489
ltoes 10.3759
230
root 10.7323 17.6474 -17.3837 14.3814 -53.2238 -8.38629
lowerback 7.03207 -0.798924 -4.98097
upperback 2.12358 -1.38439 2.62413
thorax -1.55779 -0.711557 5.64887
lowerneck -12.485 1.36147 -9.12881
upperneck 28.3098 0.677926 10.6878
head 11.0553 0.460544 5.59552
rclavicle -7.55382e-014 3.97569e-016
rhumerus -36.0021 -19.8339 -71.472
rradius 37.9979
rwrist -15.2001
rhand -11.8018 17.8568
rfingers 7.12502
rthumb 14.248 -11.6345
lclavicle -7.55382e-014 3.97569e-016
lhumerus -17.2752 23.6337 76.1928
lradius 23.444
lwrist -10.8048
lhand -4.87005 31.7042
lfingers 7.12502
lthumb 20.9183 60.5963
rfemur -36.5715 3.7258 17.8413
rtibia 59.0911
rfoot -12.2961 -2.70137
rtoes 10.0033
lfemur -16.6854 6.65626 -23.1706
ltibia 37.6346
lfoot -28.7113 18.5135
ltoes 12.6584
231
root 10.7087 17.6455 -17.3652 14.6122 -53.0586 -8.54562
lowerback 7.21243 -0.867419 -5.0473
upperback 2.05639 -1.48679 2.69396
thorax -1.71021 -0.756217 5.77478
lowerneck -12.3704 1.35635 -9.22353
upperneck 28.3036 0.666895 10.7384
head 11.0294 0.447948 5.62664
rclavicle -1.30303e-013 2.82274e-014
rhumerus -36.2041 -19.513 -71.449
rradius 38.0948
rwrist -15.6758
rhand -11.5769 18.2683
rfingers 7.12502
rthumb 14.4647 -11.2076
lclavicle -1.30303e-013 2.82274e-014
lhumerus -17.3256 23.8441 76.2678
lradius 24.0038
lwrist -9.97717
lhand -4.37414 32.8781
lfingers 7.12502
lthumb 21.3946 61.7169
rfemur -36.7443 3.57441 18.0683
rtibia 59.1801
rfoot -12.4907 -3.35293
rtoes 9.18872
lfemur -16.7022 6.86862 -22.9936
ltibia 37.6571
lfoot -28.6796 18.0393
ltoes 15.0356
232
root 10.6788 17.6383 -17.3305 14.6719 -53.1436 -8.44992
lowerback 7.13971 -0.780738 -5.21679
upperback 2.05343 -1.37954 2.71887
thorax -1.68228 -0.703261 5.88766
lowerneck -12.199 1.28087 -9.5354
upperneck 28.1693 0.560887 10.98
head 10.9514 0.393982 5.74978
rclavicle 4.16454e-014 3.06128e-014
rhumerus -36.3929 -19.8604 -71.064
rradius 38.0149
rwrist -15.5968
rhand -11.1562 18.8201
rfingers 7.12502
rthumb 14.87 -10.6263
lclavicle 4.16454e-014 3.06128e-014
lhumerus -17.1127 24.2244 76.5508
lradius 24.1728
lwrist -9.74665
lhand -3.17291 33.4946
lfingers 7.12502
lthumb 22.548 62.1979
rfemur -36.9697 3.60368 17.9989
rtibia 59.2712
rfoot -12.6178 -3.81985
rtoes 8.12911
lfemur -16.7007 6.88967 -23.1254
ltibia 37.6532
lfoot -28.9394 18.1748
ltoes 11.6112
233
root 10.6503 17.6321 -17.2894 14.6953 -53.1994 -8.37966
lowerback 7.11862 -0.78639 -5.36861
upperback 2.06208 -1.39638 2.74392
thorax -1.6544 -0.712902 6.00171
lowerneck -12.2635 1.32804 -9.51261
upperneck 28.2086 0.629436 10.9679
head 10.9707 0.426842 5.75277
rclavicle -8.89561e-014 3.97569e-015
rhumerus -36.5067 -20.3035 -70.7245
rradius 37.7749
rwrist -14.9386
rhand -10.756 19.4237
rfingers 7.12502
rthumb 15.2556 -9.99379
lclavicle -8.89561e-014 3.97569e-015
lhumerus -17.0397 24.5792 76.7312
lradius 24.2486
lwrist -9.72898
lhand -2.79087 33.3453
lfingers 7.12502
lthumb 22.9147 62.0036
rfemur -37.1228 3.60697 17.9014
rtibia 59.3942
rfoot -12.9764 -3.64829
rtoes 9.87999
lfemur -16.5818 6.80951 -23.2576
ltibia 37.5924
lfoot -29.1161 18.5249
ltoes 15.3059
